PathFileType  4	(X/Y/Z) C:\Users\antoi\Documents\MyRepositories\mobilecap\ResultsAnalysis
DataRate	CameraRate	NumFrames	NumMarkers	Units	OrigDataRate	OrigDataStartFrame	OrigNumFrames
100.0	100.0	4	51	mm	100.0	106	140
Frame#	Time	r_knee			r_shank_antsup			r_ankle			r_calc			r_5meta			r_toe			L_knee			L_shank_antsup			L_ankle			L_calc			L_5meta			L_toe			r_sh2			r_sh3			r_sh4			L_sh2			L_sh3			r_thigh1			r_thigh2			r_thigh3			r_thigh4			r_thigh5			L_thigh1			L_thigh2			L_thigh3			L_thigh4			r.ASIS			r.PSIS			L.ASIS			L.PSIS			C7			R_Shoulder			L_Shoulder			R_Sternum			L_Sternum			R_humerus			R_elbow_med			R_elbow_lat			R_forearm			R_wrist_radius			R_wrist_ulna			L_humerus			L_elbow_med			L_elbow_lat			L_forearm			L_wrist_radius			L_wrist_ulna			R_HJC			L_HJC			R_HJC_reg			L_HJC_reg			
		X1	Y1	Z1	X2	Y2	Z2	X3	Y3	Z3	X4	Y4	Z4	X5	Y5	Z5	X6	Y6	Z6	X7	Y7	Z7	X8	Y8	Z8	X9	Y9	Z9	X10	Y10	Z10	X11	Y11	Z11	X12	Y12	Z12	X13	Y13	Z13	X14	Y14	Z14	X15	Y15	Z15	X16	Y16	Z16	X17	Y17	Z17	X18	Y18	Z18	X19	Y19	Z19	X20	Y20	Z20	X21	Y21	Z21	X22	Y22	Z22	X23	Y23	Z23	X24	Y24	Z24	X25	Y25	Z25	X26	Y26	Z26	X27	Y27	Z27	X28	Y28	Z28	X29	Y29	Z29	X30	Y30	Z30	X31	Y31	Z31	X32	Y32	Z32	X33	Y33	Z33	X34	Y34	Z34	X35	Y35	Z35	X36	Y36	Z36	X37	Y37	Z37	X38	Y38	Z38	X39	Y39	Z39	X40	Y40	Z40	X41	Y41	Z41	X42	Y42	Z42	X43	Y43	Z43	X44	Y44	Z44	X45	Y45	Z45	X46	Y46	Z46	X47	Y47	Z47	X48	Y48	Z48	X49	Y49	Z49	X50	Y50	Z50	X51	Y51	Z51	

106	1.05000000	1230.62917	555.92685	-108.39081	1301.62658	487.03332	-117.85745	1376.92521	151.11330	-142.93460	1317.28870	78.39272	-189.55188	1516.87010	111.79314	-112.06929	1556.57905	166.08348	-173.67650	945.05150	539.85190	-411.07607	926.80268	446.75106	-427.19650	852.77174	122.36876	-340.66107	777.84910	74.26920	-279.16113	960.98754	48.52370	-382.07297	1026.12839	73.13858	-323.03560	1328.52455	380.17118	-93.83718	1235.98441	478.01023	-78.86316	1248.17998	362.51264	-74.19661	840.99294	468.18547	-407.19712	830.47279	347.79910	-393.46453	1170.45890	876.58038	-96.41793	1213.82571	775.32667	-97.59079	1171.43355	731.72730	-65.13368	1068.85017	832.86110	-82.00942	1117.43128	727.36846	-85.61995	1079.66495	822.20100	-442.62412	1064.16770	683.69009	-420.74170	970.19419	829.78265	-456.81509	952.17024	695.12215	-441.76204	1127.29149	1071.18316	-141.16688	944.28405	1068.77224	-197.64538	1117.56253	1065.48568	-393.81770	936.49953	1076.66443	-307.28782	1073.96331	1606.19179	-354.74207	1139.72708	1562.56569	-175.38241	1101.88167	1495.98730	-507.76956	1173.46631	1500.66474	-310.90109	1167.14157	1486.78528	-364.47671	1100.53814	1417.30091	-84.95190	958.16090	1249.56158	-105.68671	977.14655	1272.05924	-25.05734	1007.96853	1103.77137	18.15926	1033.94867	1008.05152	17.85873	997.67667	1023.15360	42.49361	1094.23848	1368.95501	-579.04163	1096.91587	1125.17117	-517.82550	1103.04961	1142.91727	-601.56991	1170.35812	1111.61750	-624.55696	1312.71598	1003.06872	-633.92891	1283.83021	973.34332	-642.67665	1055.96003	948.89054	-156.15794	1038.63683	953.47524	-362.33976	1078.39242	973.16267	-180.01012	1066.60277	985.12091	-346.06780	
107	1.06000000	1241.34228	552.22070	-110.15730	1313.00362	484.49303	-119.13145	1395.99035	149.59358	-144.07463	1338.45174	75.02167	-190.10001	1537.59787	114.61519	-114.14846	1574.88242	170.39981	-175.86436	954.58720	538.37127	-412.54235	935.01661	445.27393	-428.60236	853.85045	122.83173	-341.00276	778.09564	74.64938	-279.23637	961.11586	48.42097	-382.10379	1026.46007	72.68179	-323.13737	1341.55341	378.01251	-95.04880	1247.14998	474.26280	-80.76590	1261.30216	358.88622	-76.19467	849.41393	468.23589	-409.46513	836.70405	348.16482	-395.25121	1182.67124	872.62519	-97.64408	1225.13308	770.92172	-98.69984	1182.18493	727.74155	-66.51030	1080.47447	829.65089	-84.13147	1128.09701	723.88737	-87.59192	1091.38184	820.07110	-443.71790	1074.99487	681.54747	-422.11108	982.05592	828.25544	-458.69986	962.95850	693.59498	-443.63612	1139.74854	1068.07327	-141.23574	956.65545	1064.65044	-198.45376	1130.51487	1063.38875	-394.33506	949.19174	1073.42700	-308.02689	1084.25078	1604.00171	-352.66657	1149.47603	1559.41544	-173.23444	1113.83339	1494.67045	-506.09478	1184.18522	1498.56757	-308.94596	1178.22604	1484.99136	-362.58555	1110.71837	1413.33483	-83.87628	969.28684	1244.66939	-105.83906	987.70983	1266.99600	-25.15978	1019.12863	1098.75530	17.59733	1045.34979	1003.13590	17.06751	1008.97229	1017.96310	41.47223	1108.30333	1368.74452	-578.72023	1113.63130	1124.06776	-522.45178	1120.95920	1143.62372	-605.58651	1188.91368	1113.53600	-628.09153	1332.85747	1007.25741	-637.33620	1304.46294	977.37130	-647.21417	1068.99613	945.38104	-157.22346	1052.15041	950.87254	-363.42470	1091.55650	969.30867	-181.15461	1080.23161	982.62989	-347.41775	
108	1.07000000	1252.89515	549.10343	-111.74661	1324.68814	481.82923	-120.18825	1412.02135	147.43104	-145.52687	1356.29993	71.52670	-191.33586	1554.90833	115.87806	-116.16029	1590.24331	173.02224	-177.72412	964.60289	536.86788	-413.88461	943.61380	443.83827	-429.86422	855.09602	123.48608	-341.40838	778.42940	75.26512	-279.39774	961.25496	48.29338	-382.12166	1026.87384	72.20154	-323.24667	1353.89252	375.48775	-96.24195	1258.52359	470.88432	-82.59749	1273.58227	355.55053	-78.35629	858.32855	468.41409	-411.43482	843.25381	348.71425	-396.83239	1195.21584	869.35449	-98.85454	1237.11804	767.34152	-99.85316	1193.84352	724.45427	-67.79050	1092.66134	826.82191	-85.84354	1139.69822	720.89138	-89.26706	1103.23689	817.99043	-444.73206	1086.21670	679.45002	-423.58872	994.06400	826.68202	-460.31943	974.01621	691.97012	-445.28001	1152.21576	1065.18467	-141.30653	969.09532	1060.86306	-199.08104	1143.48099	1061.38322	-394.84015	961.96457	1070.34410	-308.58093	1094.70536	1601.90324	-350.71509	1159.34081	1556.50725	-171.20266	1125.95513	1493.35210	-504.46817	1195.04627	1496.61252	-307.06033	1189.45561	1483.28784	-360.75827	1121.10539	1409.67303	-82.83756	980.66233	1240.02730	-105.96269	998.57111	1262.19959	-25.22503	1030.60473	1094.00683	17.06354	1057.15859	998.53178	16.34324	1020.55784	1013.02916	40.50999	1122.34835	1368.52373	-578.30289	1130.01683	1123.09129	-526.85780	1138.58848	1144.41313	-609.31576	1207.04878	1115.37563	-631.31284	1352.33490	1011.20831	-640.45732	1324.48917	981.25146	-651.45447	1082.07504	942.13876	-158.11888	1065.61047	948.39949	-364.33114	1104.63122	965.82393	-182.14132	1093.79100	980.24054	-348.61703	
109	1.08000000	1265.28140	546.58334	-113.20838	1336.74026	479.10214	-121.16642	1425.12551	144.65547	-147.35283	1370.70039	68.17943	-193.32549	1568.81346	115.18166	-118.09824	1602.94113	173.42974	-179.27063	974.95810	535.42926	-415.11890	952.40753	442.54608	-431.01737	856.49912	124.36592	-341.93630	778.85511	76.22030	-279.69739	961.41164	48.10835	-382.15967	1027.37209	71.69047	-323.39964	1365.74245	372.67445	-97.51801	1270.24030	467.92724	-84.33793	1285.25357	352.55761	-80.57551	867.57130	468.84295	-413.01563	849.95077	349.55028	-398.17254	1208.06503	866.86215	-100.01440	1249.80618	764.70860	-101.04646	1206.47332	721.94287	-68.98051	1105.39163	824.40273	-87.08171	1152.29021	718.44958	-90.60918	1115.20024	815.98624	-445.60601	1097.75599	677.43524	-425.08493	1006.17877	825.13128	-461.60052	985.26023	690.31391	-446.62110	1164.73569	1062.60514	-141.37655	981.62296	1057.49045	-199.60442	1156.51230	1059.46695	-395.32073	974.84251	1067.45448	-309.02774	1105.33095	1599.96571	-348.89731	1169.35422	1553.91612	-169.28885	1138.24547	1492.11947	-502.90060	1206.06889	1494.87298	-305.24973	1200.84154	1481.75143	-358.99996	1131.69171	1406.38572	-81.83393	992.32296	1235.73180	-106.09066	1009.74795	1257.76220	-25.28081	1042.40255	1089.62460	16.54933	1069.37872	994.32933	15.68684	1032.45185	1008.45688	39.60597	1136.36326	1368.36712	-577.79967	1146.03839	1122.30450	-530.97781	1155.79793	1145.32013	-612.74696	1224.69869	1117.21264	-634.23269	1371.10538	1014.93686	-643.28023	1343.82084	984.99945	-655.38589	1095.19652	939.24959	-158.82843	1079.06790	946.06798	-365.05139	1117.64768	962.78725	-182.92591	1107.31992	977.96735	-349.62424	
